<svg xmlns="http://www.w3.org/2000/svg" viewBox="0 0 1200 700"><defs><linearGradient id="b" x1="0" x2="1"><stop stop-color="#070711"/><stop offset=".45" stop-color="#111534"/><stop offset="1" stop-color="#17101f"/></linearGradient><linearGradient id="n" x1="0" x2="1"><stop stop-color="#8be9ff"/><stop offset=".55" stop-color="#7357ff"/><stop offset="1" stop-color="#b669ff"/></linearGradient></defs><rect width="1200" height="700" fill="url(#b)"/><g opacity=".7"><path d="M0 110L600 480" stroke="#8be9ff" stroke-width="4"/><path d="M1200 80L610 470" stroke="#b669ff" stroke-width="5"/><path d="M250 0L570 470" stroke="#7357ff" stroke-width="3"/></g><ellipse cx="600" cy="550" rx="330" ry="100" fill="#050509"/><circle cx="600" cy="285" r="70" fill="#090a12" stroke="#8be9ff" stroke-width="3"/><path d="M540 360h120l75 170H465z" fill="#080910" stroke="#5e376e" stroke-width="3"/><rect x="360" y="500" width="480" height="90" rx="12" fill="#0b0c14" stroke="url(#n)" stroke-width="5"/><g fill="url(#n)"><rect x="420" y="530" width="14" height="32"/><rect x="455" y="512" width="14" height="50"/><rect x="490" y="536" width="14" height="26"/><rect x="525" y="502" width="14" height="60"/><rect x="560" y="525" width="14" height="37"/><rect x="595" y="493" width="14" height="69"/><rect x="630" y="516" width="14" height="46"/><rect x="665" y="507" width="14" height="55"/><rect x="700" y="532" width="14" height="30"/><rect x="735" y="500" width="14" height="62"/></g></svg>
